<mxfile host="app.diagrams.net" modified="2023-04-13T09:00:16.009Z" agent="Mozilla/5.0 (X11; Linux x86_64; rv:109.0) Gecko/20100101 Firefox/112.0" etag="3_D8WNE1ArT-Z5OmcGkl" version="21.1.2">
  <diagram name="Page-1" id="r9PYlgCfXoHnLu3iCjQw">
    <mxGraphModel dx="1195" dy="663" grid="1" gridSize="10" guides="1" tooltips="1" connect="1" arrows="1" fold="1" page="1" pageScale="1" pageWidth="850" pageHeight="1100" background="#B3B3B3" math="0" shadow="0">
      <root>
        <mxCell id="0" />
        <mxCell id="1" parent="0" />
        <mxCell id="HD1OJpvFkT-1QuRMqXdn-39" style="rounded=0;orthogonalLoop=1;jettySize=auto;html=1;exitX=0.25;exitY=1;exitDx=0;exitDy=0;" edge="1" parent="1" source="HD1OJpvFkT-1QuRMqXdn-1">
          <mxGeometry relative="1" as="geometry">
            <mxPoint x="350" y="320" as="targetPoint" />
          </mxGeometry>
        </mxCell>
        <mxCell id="HD1OJpvFkT-1QuRMqXdn-40" style="rounded=0;orthogonalLoop=1;jettySize=auto;html=1;exitX=0.75;exitY=1;exitDx=0;exitDy=0;entryX=0.205;entryY=-0.038;entryDx=0;entryDy=0;entryPerimeter=0;" edge="1" parent="1" source="HD1OJpvFkT-1QuRMqXdn-1" target="HD1OJpvFkT-1QuRMqXdn-3">
          <mxGeometry relative="1" as="geometry" />
        </mxCell>
        <mxCell id="HD1OJpvFkT-1QuRMqXdn-1" value="&lt;div&gt;Strategy&lt;/div&gt;" style="rounded=0;whiteSpace=wrap;html=1;" vertex="1" parent="1">
          <mxGeometry x="355" y="210" width="110" height="40" as="geometry" />
        </mxCell>
        <mxCell id="HD1OJpvFkT-1QuRMqXdn-18" value="" style="group;align=center;labelPosition=center;verticalLabelPosition=top;verticalAlign=bottom;" vertex="1" connectable="0" parent="1">
          <mxGeometry x="440" y="320" width="130" height="100" as="geometry" />
        </mxCell>
        <mxCell id="HD1OJpvFkT-1QuRMqXdn-3" value="&lt;div align=&quot;right&quot;&gt;Behavior Group&lt;/div&gt;" style="whiteSpace=wrap;html=1;labelPosition=center;verticalLabelPosition=top;align=right;verticalAlign=bottom;movable=1;resizable=1;rotatable=1;deletable=1;editable=1;locked=0;connectable=1;" vertex="1" parent="HD1OJpvFkT-1QuRMqXdn-18">
          <mxGeometry width="130" height="100" as="geometry" />
        </mxCell>
        <mxCell id="HD1OJpvFkT-1QuRMqXdn-4" value="Behavior" style="whiteSpace=wrap;html=1;movable=1;resizable=1;rotatable=1;deletable=1;editable=1;locked=0;connectable=1;" vertex="1" parent="HD1OJpvFkT-1QuRMqXdn-18">
          <mxGeometry x="10" y="20" width="90" height="20" as="geometry" />
        </mxCell>
        <mxCell id="HD1OJpvFkT-1QuRMqXdn-5" value="Behavior" style="whiteSpace=wrap;html=1;movable=1;resizable=1;rotatable=1;deletable=1;editable=1;locked=0;connectable=1;" vertex="1" parent="HD1OJpvFkT-1QuRMqXdn-18">
          <mxGeometry x="10" y="40" width="90" height="20" as="geometry" />
        </mxCell>
        <mxCell id="HD1OJpvFkT-1QuRMqXdn-6" value="Behavior" style="whiteSpace=wrap;html=1;movable=1;resizable=1;rotatable=1;deletable=1;editable=1;locked=0;connectable=1;" vertex="1" parent="HD1OJpvFkT-1QuRMqXdn-18">
          <mxGeometry x="10" y="60" width="90" height="20" as="geometry" />
        </mxCell>
        <mxCell id="HD1OJpvFkT-1QuRMqXdn-11" value="..." style="text;html=1;align=center;verticalAlign=middle;resizable=1;points=[];autosize=1;strokeColor=none;fillColor=none;movable=1;rotatable=1;deletable=1;editable=1;locked=0;connectable=1;" vertex="1" parent="HD1OJpvFkT-1QuRMqXdn-18">
          <mxGeometry x="40" y="70" width="30" height="30" as="geometry" />
        </mxCell>
        <mxCell id="HD1OJpvFkT-1QuRMqXdn-19" value="" style="group" vertex="1" connectable="0" parent="1">
          <mxGeometry x="240" y="320" width="130" height="100" as="geometry" />
        </mxCell>
        <mxCell id="HD1OJpvFkT-1QuRMqXdn-13" value="&lt;div&gt;Behavior Group&lt;/div&gt;" style="whiteSpace=wrap;html=1;labelPosition=center;verticalLabelPosition=top;align=left;verticalAlign=bottom;" vertex="1" parent="HD1OJpvFkT-1QuRMqXdn-19">
          <mxGeometry width="130" height="100" as="geometry" />
        </mxCell>
        <mxCell id="HD1OJpvFkT-1QuRMqXdn-14" value="Behavior" style="whiteSpace=wrap;html=1;" vertex="1" parent="HD1OJpvFkT-1QuRMqXdn-19">
          <mxGeometry x="10" y="20" width="90" height="20" as="geometry" />
        </mxCell>
        <mxCell id="HD1OJpvFkT-1QuRMqXdn-15" value="Behavior" style="whiteSpace=wrap;html=1;" vertex="1" parent="HD1OJpvFkT-1QuRMqXdn-19">
          <mxGeometry x="10" y="40" width="90" height="20" as="geometry" />
        </mxCell>
        <mxCell id="HD1OJpvFkT-1QuRMqXdn-16" value="Behavior" style="whiteSpace=wrap;html=1;" vertex="1" parent="HD1OJpvFkT-1QuRMqXdn-19">
          <mxGeometry x="10" y="60" width="90" height="20" as="geometry" />
        </mxCell>
        <mxCell id="HD1OJpvFkT-1QuRMqXdn-17" value="..." style="text;html=1;align=center;verticalAlign=middle;resizable=0;points=[];autosize=1;strokeColor=none;fillColor=none;" vertex="1" parent="HD1OJpvFkT-1QuRMqXdn-19">
          <mxGeometry x="40" y="70" width="30" height="30" as="geometry" />
        </mxCell>
        <mxCell id="HD1OJpvFkT-1QuRMqXdn-22" style="edgeStyle=orthogonalEdgeStyle;rounded=0;orthogonalLoop=1;jettySize=auto;html=1;exitX=0.25;exitY=0;exitDx=0;exitDy=0;entryX=0.575;entryY=0.988;entryDx=0;entryDy=0;entryPerimeter=0;" edge="1" parent="1" source="HD1OJpvFkT-1QuRMqXdn-20" target="HD1OJpvFkT-1QuRMqXdn-13">
          <mxGeometry relative="1" as="geometry" />
        </mxCell>
        <mxCell id="HD1OJpvFkT-1QuRMqXdn-23" style="edgeStyle=orthogonalEdgeStyle;rounded=0;orthogonalLoop=1;jettySize=auto;html=1;exitX=0.75;exitY=0;exitDx=0;exitDy=0;entryX=0.813;entryY=0.987;entryDx=0;entryDy=0;entryPerimeter=0;" edge="1" parent="1" source="HD1OJpvFkT-1QuRMqXdn-20" target="HD1OJpvFkT-1QuRMqXdn-11">
          <mxGeometry relative="1" as="geometry" />
        </mxCell>
        <mxCell id="HD1OJpvFkT-1QuRMqXdn-20" value="Saphira Robot" style="whiteSpace=wrap;html=1;" vertex="1" parent="1">
          <mxGeometry x="220" y="540" width="380" height="40" as="geometry" />
        </mxCell>
        <mxCell id="HD1OJpvFkT-1QuRMqXdn-26" value="&lt;div&gt;LPS&lt;/div&gt;" style="text;html=1;align=center;verticalAlign=middle;resizable=0;points=[];autosize=1;strokeColor=none;fillColor=none;" vertex="1" parent="1">
          <mxGeometry x="250" y="450" width="50" height="30" as="geometry" />
        </mxCell>
        <mxCell id="HD1OJpvFkT-1QuRMqXdn-30" value="" style="group" vertex="1" connectable="0" parent="1">
          <mxGeometry x="330" y="440" width="60" height="30" as="geometry" />
        </mxCell>
        <mxCell id="HD1OJpvFkT-1QuRMqXdn-27" value="&lt;div&gt;&lt;br&gt;&lt;/div&gt;&lt;div&gt;&lt;br&gt;&lt;/div&gt;" style="whiteSpace=wrap;html=1;" vertex="1" parent="HD1OJpvFkT-1QuRMqXdn-30">
          <mxGeometry x="10" width="50" height="20" as="geometry" />
        </mxCell>
        <mxCell id="HD1OJpvFkT-1QuRMqXdn-28" value="Desire" style="whiteSpace=wrap;html=1;" vertex="1" parent="HD1OJpvFkT-1QuRMqXdn-30">
          <mxGeometry y="10" width="50" height="20" as="geometry" />
        </mxCell>
        <mxCell id="HD1OJpvFkT-1QuRMqXdn-31" value="" style="group" vertex="1" connectable="0" parent="1">
          <mxGeometry x="425" y="440" width="60" height="30" as="geometry" />
        </mxCell>
        <mxCell id="HD1OJpvFkT-1QuRMqXdn-32" value="&lt;div&gt;&lt;br&gt;&lt;/div&gt;&lt;div&gt;&lt;br&gt;&lt;/div&gt;" style="whiteSpace=wrap;html=1;" vertex="1" parent="HD1OJpvFkT-1QuRMqXdn-31">
          <mxGeometry x="10" width="50" height="20" as="geometry" />
        </mxCell>
        <mxCell id="HD1OJpvFkT-1QuRMqXdn-33" value="Desire" style="whiteSpace=wrap;html=1;" vertex="1" parent="HD1OJpvFkT-1QuRMqXdn-31">
          <mxGeometry y="10" width="50" height="20" as="geometry" />
        </mxCell>
        <mxCell id="HD1OJpvFkT-1QuRMqXdn-35" style="rounded=0;orthogonalLoop=1;jettySize=auto;html=1;exitX=0.75;exitY=1;exitDx=0;exitDy=0;entryX=0.25;entryY=0;entryDx=0;entryDy=0;" edge="1" parent="1" source="HD1OJpvFkT-1QuRMqXdn-13" target="HD1OJpvFkT-1QuRMqXdn-27">
          <mxGeometry relative="1" as="geometry" />
        </mxCell>
        <mxCell id="HD1OJpvFkT-1QuRMqXdn-36" style="rounded=0;orthogonalLoop=1;jettySize=auto;html=1;exitX=0.25;exitY=1;exitDx=0;exitDy=0;entryX=0.5;entryY=0;entryDx=0;entryDy=0;" edge="1" parent="1" source="HD1OJpvFkT-1QuRMqXdn-3" target="HD1OJpvFkT-1QuRMqXdn-32">
          <mxGeometry relative="1" as="geometry" />
        </mxCell>
        <mxCell id="HD1OJpvFkT-1QuRMqXdn-37" value="" style="group" vertex="1" connectable="0" parent="1">
          <mxGeometry x="210" y="260" width="400" height="30" as="geometry" />
        </mxCell>
        <mxCell id="HD1OJpvFkT-1QuRMqXdn-24" value="" style="endArrow=none;html=1;rounded=0;" edge="1" parent="HD1OJpvFkT-1QuRMqXdn-37">
          <mxGeometry width="50" height="50" relative="1" as="geometry">
            <mxPoint y="22" as="sourcePoint" />
            <mxPoint x="399.99999999999994" y="22" as="targetPoint" />
          </mxGeometry>
        </mxCell>
        <mxCell id="HD1OJpvFkT-1QuRMqXdn-25" value="&lt;font style=&quot;font-size: 10px;&quot;&gt;Reaktive Ebene&lt;br&gt;&lt;/font&gt;" style="text;html=1;align=center;verticalAlign=middle;resizable=0;points=[];autosize=1;strokeColor=none;fillColor=none;" vertex="1" parent="HD1OJpvFkT-1QuRMqXdn-37">
          <mxGeometry width="100" height="30" as="geometry" />
        </mxCell>
        <mxCell id="HD1OJpvFkT-1QuRMqXdn-43" style="edgeStyle=orthogonalEdgeStyle;rounded=0;orthogonalLoop=1;jettySize=auto;html=1;exitX=0.5;exitY=1;exitDx=0;exitDy=0;" edge="1" parent="1" source="HD1OJpvFkT-1QuRMqXdn-38" target="HD1OJpvFkT-1QuRMqXdn-20">
          <mxGeometry relative="1" as="geometry" />
        </mxCell>
        <mxCell id="HD1OJpvFkT-1QuRMqXdn-38" value="Priority Resolver" style="whiteSpace=wrap;html=1;" vertex="1" parent="1">
          <mxGeometry x="355" y="500" width="110" height="20" as="geometry" />
        </mxCell>
        <mxCell id="HD1OJpvFkT-1QuRMqXdn-41" style="rounded=0;orthogonalLoop=1;jettySize=auto;html=1;exitX=0.5;exitY=1;exitDx=0;exitDy=0;entryX=0.25;entryY=0;entryDx=0;entryDy=0;" edge="1" parent="1" source="HD1OJpvFkT-1QuRMqXdn-28" target="HD1OJpvFkT-1QuRMqXdn-38">
          <mxGeometry relative="1" as="geometry" />
        </mxCell>
        <mxCell id="HD1OJpvFkT-1QuRMqXdn-42" style="rounded=0;orthogonalLoop=1;jettySize=auto;html=1;exitX=0.5;exitY=1;exitDx=0;exitDy=0;entryX=0.75;entryY=0;entryDx=0;entryDy=0;" edge="1" parent="1" source="HD1OJpvFkT-1QuRMqXdn-33" target="HD1OJpvFkT-1QuRMqXdn-38">
          <mxGeometry relative="1" as="geometry" />
        </mxCell>
      </root>
    </mxGraphModel>
  </diagram>
</mxfile>
